# xmcd
#
# Track frame offsets: 
#        150
#        24835
#        58187
#        75620
#        95497
#        114338
#        129871
#        145232
#        156623
#        172716
#        189689
#        208204
#        220040
#        236363
#        254947
#
# Disc length: 3570 seconds
#
# Revision: 6
# Processed by: cddbd v1.5.2PL0 Copyright (c) Steve Scherf et al.
# Submitted via: ExactAudioCopy v1.3
#
DISCID=d10df00f
DTITLE=Various Artist - Classic Soul Ballads Nite And Day Disc 2
DYEAR=2004
DGENRE=Soul
TTITLE0=Teddy Pendergrass - Close The Door
TTITLE1=Grover Washington Jr. - Just The Two Of Us
TTITLE2=Brook Benton - Rainy Night In Georgia
TTITLE3=Anita Baker - Sweet Love
TTITLE4=Larry Graham - One In A Million You
TTITLE5=Aretha Franklin - Until You Come Back To Me (That's What I'm G
TTITLE5=onna Do)
TTITLE6=Persuaders - Thin Line Between Love And Hate
TTITLE7=Barbara Lewis - Baby I'm Yours
TTITLE8=Luther Ingram - (If Loving You Is Wrong) I Don't Want To Be Ri
TTITLE8=ght
TTITLE9=Moments - Love On A Two-Way Street
TTITLE10=Sylvia - Pillow Talk
TTITLE11=Linda Jones - Hypnotized
TTITLE12=Patti Austin With James Ingram - Baby Come To Me
TTITLE13=Bloodstone - Natural High
TTITLE14=Percy Sledge - When A Man Loves A Woman
EXTD=
EXTT0=
EXTT1=
EXTT2=
EXTT3=
EXTT4=
EXTT5=
EXTT6=
EXTT7=
EXTT8=
EXTT9=
EXTT10=
EXTT11=
EXTT12=
EXTT13=
EXTT14=
PLAYORDER=
